<?xml version="1.0" encoding="UTF-8" standalone="no"?>
<svg
   xmlns:dc="http://purl.org/dc/elements/1.1/"
   xmlns:cc="http://creativecommons.org/ns#"
   xmlns:rdf="http://www.w3.org/1999/02/22-rdf-syntax-ns#"
   xmlns:svg="http://www.w3.org/2000/svg"
   xmlns="http://www.w3.org/2000/svg"
   id="svg15657"
   version="1.1"
   viewBox="0 0 108.54067 98.951065"
   height="373.98828"
   width="410.23242">
  <defs
     id="defs15651" />
  <metadata
     id="metadata15654">
    <rdf:RDF>
      <cc:Work
         rdf:about="">
        <dc:format>image/svg+xml</dc:format>
        <dc:type
           rdf:resource="http://purl.org/dc/dcmitype/StillImage" />
        <dc:title></dc:title>
      </cc:Work>
    </rdf:RDF>
  </metadata>
  <g
     transform="translate(39.068451,-16.922957)"
     id="layer1">
    <path
       id="path15623"
       transform="matrix(0.26458333,0,0,0.26458333,-31.296832,24.860457)"
       d="M 85.701172,0.5 1.1269531,85.890625 V 224.83203 L 89.78125,313.48828 h 185.14844 l 0.47851,-81.26562 74.95118,0.11914 V 0.5 Z m 29.146488,93.875 c 7.6535,0 14.72877,1.159272 21.22265,3.478516 6.60985,2.203284 12.34834,5.218164 17.21875,9.044924 4.87042,3.82675 8.69738,8.3481 11.48047,13.5664 2.78309,5.2183 4.23365,10.78515 4.34961,16.69922 0,1.04366 -0.40702,1.97147 -1.21875,2.78321 -0.69577,0.69577 -1.56571,1.04296 -2.60937,1.04296 h -22.78516 c -1.97136,0 -3.30618,-0.34719 -4.00195,-1.04296 -0.69578,-0.81174 -1.3323,-2.14461 -1.91211,-4 -0.46385,-1.39155 -1.1602,-2.89997 -2.08789,-4.52344 -0.81174,-1.62348 -2.02888,-3.07208 -3.65235,-4.34766 -1.62347,-1.39154 -3.71055,-2.55081 -6.26172,-3.47851 -2.55117,-0.9277 -5.79947,-1.39258 -9.74218,-1.39258 -3.94272,0 -7.24693,0.58061 -9.91407,1.74023 -2.66713,1.04366 -4.86994,2.49226 -6.609371,4.34766 -1.739434,1.8554 -3.016389,4.00034 -3.828125,6.43555 -0.811736,2.4352 -1.332529,4.98716 -1.564453,7.65429 -0.115964,1.50751 -0.231696,3.59459 -0.347657,6.26172 v 8.34961 8.34961 c 0.115961,2.66713 0.231693,4.75421 0.347657,6.26172 0.231924,2.66713 0.752717,5.21713 1.564453,7.65234 0.811736,2.43521 2.088691,4.58211 3.828125,6.4375 1.739431,1.8554 3.942241,3.36186 6.609371,4.52149 2.66714,1.04366 5.97135,1.5664 9.91407,1.5664 3.94271,0 7.19101,-0.46488 9.74218,-1.39258 2.55117,-0.92769 4.63825,-2.0291 6.26172,-3.30468 1.62347,-1.39155 2.84061,-2.89802 3.65235,-4.52149 0.92769,-1.62347 1.62404,-3.13189 2.08789,-4.52343 0.57981,-1.8554 1.21633,-3.1304 1.91211,-3.82618 0.69577,-0.81173 2.03059,-1.21875 4.00195,-1.21875 h 22.78516 c 1.04366,0 1.9136,0.40702 2.60937,1.21875 0.81173,0.69578 1.21875,1.56572 1.21875,2.60938 -0.11596,5.91407 -1.56651,11.47896 -4.34961,16.69726 -2.78309,5.2183 -6.61005,9.74161 -11.48047,13.56836 -4.87041,3.82676 -10.6089,6.89951 -17.21875,9.21875 -6.49388,2.20328 -13.56915,3.30469 -21.22265,3.30469 -8.34929,0 -15.827656,-1.21714 -22.437504,-3.65234 -6.493885,-2.55117 -12.060728,-5.97307 -16.699218,-10.26367 -4.638489,-4.29061 -8.233986,-9.27684 -10.785157,-14.95899 -2.435205,-5.79811 -3.82594,-11.88575 -4.173828,-18.26367 -0.231937,-4.75445 -0.347656,-9.85642 -0.347656,-15.30664 0,-5.45023 0.115719,-10.66792 0.347656,-15.6543 0.231912,-6.37792 1.622647,-12.40965 4.173828,-18.09179 2.551171,-5.79812 6.088801,-10.84221 10.611328,-15.13282 4.638489,-4.2906 10.2632,-7.65268 16.873047,-10.087888 C 99.020004,95.650003 106.49837,94.375 114.84766,94.375 Z m 121.96484,0 c 7.65351,0 14.72682,1.159272 21.2207,3.478516 6.60985,2.203284 12.35029,5.218164 17.22071,9.044924 4.87041,3.82675 8.69737,8.3481 11.48047,13.5664 2.78308,5.2183 4.23169,10.78515 4.34765,16.69922 0,1.04366 -0.40506,1.97147 -1.2168,2.78321 -0.69577,0.69577 -1.56571,1.04296 -2.60937,1.04296 h -22.78711 c -1.97136,0 -3.30423,-0.34719 -4,-1.04296 -0.69577,-0.81174 -1.33425,-2.14461 -1.91406,-4 -0.46385,-1.39155 -1.15824,-2.89997 -2.08594,-4.52344 -0.81174,-1.62348 -2.03083,-3.07208 -3.6543,-4.34766 -1.62347,-1.39154 -3.71054,-2.55081 -6.26172,-3.47851 -2.55116,-0.9277 -5.79751,-1.39258 -9.74023,-1.39258 -3.94271,0 -7.24693,0.58061 -9.91406,1.74023 -2.66713,1.04366 -4.8719,2.49226 -6.61133,4.34766 -1.73943,1.8554 -3.01444,4.00034 -3.82617,6.43555 -0.81174,2.4352 -1.33253,4.98716 -1.56446,7.65429 -0.11595,1.50751 -0.23366,3.59459 -0.3496,6.26172 v 8.34961 8.34961 c 0.11594,2.66713 0.23365,4.75421 0.3496,6.26172 0.23192,2.66713 0.75271,5.21713 1.56446,7.65234 0.81173,2.43521 2.08674,4.58211 3.82617,6.4375 1.73943,1.8554 3.9442,3.36186 6.61133,4.52149 2.66713,1.04366 5.97135,1.5664 9.91406,1.5664 3.94272,0 7.18907,-0.46488 9.74023,-1.39258 2.55118,-0.92768 4.63825,-2.0291 6.26172,-3.30468 1.62347,-1.39155 2.84256,-2.89802 3.6543,-4.52149 0.9277,-1.62347 1.62209,-3.13189 2.08594,-4.52343 0.57981,-1.8554 1.21829,-3.1304 1.91406,-3.82618 0.69577,-0.81173 2.02864,-1.21875 4,-1.21875 h 22.78711 c 1.04366,0 1.9136,0.40702 2.60937,1.21875 0.81174,0.69578 1.2168,1.56572 1.2168,2.60938 -0.11595,5.91407 -1.56456,11.47896 -4.34765,16.69726 -2.7831,5.2183 -6.61006,9.74161 -11.48047,13.56836 -4.87042,3.82676 -10.61086,6.89951 -17.22071,9.21875 -6.49388,2.20328 -13.56719,3.30469 -21.2207,3.30469 -8.34928,0 -15.82961,-1.21714 -22.43945,-3.65234 -6.49389,-2.55117 -12.05878,-5.97307 -16.69727,-10.26367 -4.63849,-4.29061 -8.23399,-9.27684 -10.78516,-14.95899 -2.43519,-5.79811 -3.82594,-11.88575 -4.17382,-18.26367 -0.23191,-4.75445 -0.34766,-9.85642 -0.34766,-15.30664 0,-5.45023 0.11575,-10.66792 0.34766,-15.6543 0.23191,-6.37792 1.62265,-12.40966 4.17382,-18.09179 2.55117,-5.79812 6.08881,-10.84221 10.61133,-15.13282 4.63849,-4.2906 10.26125,-7.65268 16.8711,-10.087888 C 220.98289,95.650003 228.46322,94.375 236.8125,94.375 Z"
       style="fill:#000000;fill-rule:evenodd;stroke:#000000;stroke-width:0.99999994px;stroke-linecap:butt;stroke-linejoin:miter;stroke-opacity:1" />
    <g
       id="text15627"
       style="font-style:normal;font-variant:normal;font-weight:bold;font-stretch:normal;font-size:46.02251434px;line-height:100%;font-family:Rubik;-inkscape-font-specification:'Rubik Bold';letter-spacing:0px;word-spacing:0px;fill:#ffffff;fill-opacity:1;stroke:none;stroke-width:1.31492901px;stroke-linecap:butt;stroke-linejoin:miter;stroke-opacity:1"
       aria-label="CC" />
  </g>
</svg>
