<?xml version="1.0" encoding="UTF-8" standalone="no"?>
<!-- Created with Inkscape (http://www.inkscape.org/) -->

<svg
   xmlns:dc="http://purl.org/dc/elements/1.1/"
   xmlns:cc="http://creativecommons.org/ns#"
   xmlns:rdf="http://www.w3.org/1999/02/22-rdf-syntax-ns#"
   xmlns:svg="http://www.w3.org/2000/svg"
   xmlns="http://www.w3.org/2000/svg"
   xmlns:sodipodi="http://sodipodi.sourceforge.net/DTD/sodipodi-0.dtd"
   xmlns:inkscape="http://www.inkscape.org/namespaces/inkscape"
   width="92.831757mm"
   height="113.38623mm"
   viewBox="0 0 92.831757 113.38623"
   version="1.1"
   id="svg15657"
   sodipodi:docname="logo.svg"
   inkscape:version="0.92.3 (2405546, 2018-03-11)">
  <defs
     id="defs15651" />
  <sodipodi:namedview
     id="base"
     pagecolor="#ffffff"
     bordercolor="#666666"
     borderopacity="1.0"
     inkscape:pageopacity="0.0"
     inkscape:pageshadow="2"
     inkscape:zoom="0.35"
     inkscape:cx="29.715811"
     inkscape:cy="-40.012521"
     inkscape:document-units="mm"
     inkscape:current-layer="layer1"
     showgrid="false"
     fit-margin-top="0"
     fit-margin-left="0"
     fit-margin-right="0"
     fit-margin-bottom="0"
     inkscape:window-width="1364"
     inkscape:window-height="747"
     inkscape:window-x="0"
     inkscape:window-y="19"
     inkscape:window-maximized="0" />
  <metadata
     id="metadata15654">
    <rdf:RDF>
      <cc:Work
         rdf:about="">
        <dc:format>image/svg+xml</dc:format>
        <dc:type
           rdf:resource="http://purl.org/dc/dcmitype/StillImage" />
        <dc:title></dc:title>
      </cc:Work>
    </rdf:RDF>
  </metadata>
  <g
     inkscape:label="Layer 1"
     inkscape:groupmode="layer"
     id="layer1"
     transform="translate(31.296832,-24.860457)">
    <path
       style="fill:#000000;fill-rule:evenodd;stroke:#000000;stroke-width:0.99999994px;stroke-linecap:butt;stroke-linejoin:miter;stroke-opacity:1"
       d="M 85.701172 0.5 L 1.1269531 85.890625 L 1.1269531 224.83203 L 89.78125 313.48828 L 274.92969 313.48828 L 275.4082 232.22266 L 350.35938 232.3418 L 350.35938 0.5 L 85.701172 0.5 z M 114.84766 94.375 C 122.50116 94.375 129.57643 95.534272 136.07031 97.853516 C 142.68016 100.0568 148.41865 103.07168 153.28906 106.89844 C 158.15948 110.72519 161.98644 115.24654 164.76953 120.46484 C 167.55262 125.68314 169.00318 131.24999 169.11914 137.16406 C 169.11914 138.20772 168.71212 139.13553 167.90039 139.94727 C 167.20462 140.64304 166.33468 140.99023 165.29102 140.99023 L 142.50586 140.99023 C 140.5345 140.99023 139.19968 140.64304 138.50391 139.94727 C 137.80813 139.13553 137.17161 137.80266 136.5918 135.94727 C 136.12795 134.55572 135.4316 133.0473 134.50391 131.42383 C 133.69217 129.80035 132.47503 128.35175 130.85156 127.07617 C 129.22809 125.68463 127.14101 124.52536 124.58984 123.59766 C 122.03867 122.66996 118.79037 122.20508 114.84766 122.20508 C 110.90494 122.20508 107.60073 122.78569 104.93359 123.94531 C 102.26646 124.98897 100.06365 126.43757 98.324219 128.29297 C 96.584785 130.14837 95.30783 132.29331 94.496094 134.72852 C 93.684358 137.16372 93.163565 139.71568 92.931641 142.38281 C 92.815677 143.89032 92.699945 145.9774 92.583984 148.64453 L 92.583984 156.99414 L 92.583984 165.34375 C 92.699945 168.01088 92.815677 170.09796 92.931641 171.60547 C 93.163565 174.2726 93.684358 176.8226 94.496094 179.25781 C 95.30783 181.69302 96.584785 183.83992 98.324219 185.69531 C 100.06365 187.55071 102.26646 189.05717 104.93359 190.2168 C 107.60073 191.26046 110.90494 191.7832 114.84766 191.7832 C 118.79037 191.7832 122.03867 191.31832 124.58984 190.39062 C 127.14101 189.46293 129.22809 188.36152 130.85156 187.08594 C 132.47503 185.69439 133.69217 184.18792 134.50391 182.56445 C 135.4316 180.94098 136.12795 179.43256 136.5918 178.04102 C 137.17161 176.18562 137.80813 174.91062 138.50391 174.21484 C 139.19968 173.40311 140.5345 172.99609 142.50586 172.99609 L 165.29102 172.99609 C 166.33468 172.99609 167.20462 173.40311 167.90039 174.21484 C 168.71212 174.91062 169.11914 175.78056 169.11914 176.82422 C 169.00318 182.73829 167.55263 188.30318 164.76953 193.52148 C 161.98644 198.73978 158.15948 203.26309 153.28906 207.08984 C 148.41865 210.9166 142.68016 213.98935 136.07031 216.30859 C 129.57643 218.51187 122.50116 219.61328 114.84766 219.61328 C 106.49837 219.61328 99.020004 218.39614 92.410156 215.96094 C 85.916271 213.40977 80.349428 209.98787 75.710938 205.69727 C 71.072449 201.40666 67.476952 196.42043 64.925781 190.73828 C 62.490576 184.94017 61.099841 178.85253 60.751953 172.47461 C 60.520016 167.72016 60.404297 162.61819 60.404297 157.16797 C 60.404297 151.71774 60.520016 146.50005 60.751953 141.51367 C 60.983865 135.13575 62.3746 129.10402 64.925781 123.42188 C 67.476952 117.62376 71.014582 112.57967 75.537109 108.28906 C 80.175598 103.99846 85.800309 100.63638 92.410156 98.201172 C 99.020004 95.650003 106.49837 94.375 114.84766 94.375 z M 236.8125 94.375 C 244.46601 94.375 251.53932 95.534272 258.0332 97.853516 C 264.64305 100.0568 270.38349 103.07168 275.25391 106.89844 C 280.12432 110.72519 283.95128 115.24654 286.73438 120.46484 C 289.51746 125.68314 290.96607 131.24999 291.08203 137.16406 C 291.08203 138.20772 290.67697 139.13553 289.86523 139.94727 C 289.16946 140.64304 288.29952 140.99023 287.25586 140.99023 L 264.46875 140.99023 C 262.49739 140.99023 261.16452 140.64304 260.46875 139.94727 C 259.77298 139.13553 259.1345 137.80266 258.55469 135.94727 C 258.09084 134.55572 257.39645 133.0473 256.46875 131.42383 C 255.65701 129.80035 254.43792 128.35175 252.81445 127.07617 C 251.19098 125.68463 249.10391 124.52536 246.55273 123.59766 C 244.00157 122.66996 240.75522 122.20508 236.8125 122.20508 C 232.86979 122.20508 229.56557 122.78569 226.89844 123.94531 C 224.23131 124.98897 222.02654 126.43757 220.28711 128.29297 C 218.54768 130.14837 217.27267 132.29331 216.46094 134.72852 C 215.6492 137.16372 215.12841 139.71568 214.89648 142.38281 C 214.78053 143.89032 214.66282 145.9774 214.54688 148.64453 L 214.54688 156.99414 L 214.54688 165.34375 C 214.66282 168.01088 214.78053 170.09796 214.89648 171.60547 C 215.1284 174.2726 215.64919 176.8226 216.46094 179.25781 C 217.27267 181.69302 218.54768 183.83992 220.28711 185.69531 C 222.02654 187.55071 224.23131 189.05717 226.89844 190.2168 C 229.56557 191.26046 232.86979 191.7832 236.8125 191.7832 C 240.75522 191.7832 244.00157 191.31832 246.55273 190.39062 C 249.10391 189.46294 251.19098 188.36152 252.81445 187.08594 C 254.43792 185.69439 255.65701 184.18792 256.46875 182.56445 C 257.39645 180.94098 258.09084 179.43256 258.55469 178.04102 C 259.1345 176.18562 259.77298 174.91062 260.46875 174.21484 C 261.16452 173.40311 262.49739 172.99609 264.46875 172.99609 L 287.25586 172.99609 C 288.29952 172.99609 289.16946 173.40311 289.86523 174.21484 C 290.67697 174.91062 291.08203 175.78056 291.08203 176.82422 C 290.96608 182.73829 289.51747 188.30318 286.73438 193.52148 C 283.95128 198.73978 280.12432 203.26309 275.25391 207.08984 C 270.38349 210.9166 264.64305 213.98935 258.0332 216.30859 C 251.53932 218.51187 244.46601 219.61328 236.8125 219.61328 C 228.46322 219.61328 220.98289 218.39614 214.37305 215.96094 C 207.87916 213.40977 202.31427 209.98787 197.67578 205.69727 C 193.03729 201.40666 189.44179 196.42043 186.89062 190.73828 C 184.45543 184.94017 183.06468 178.85253 182.7168 172.47461 C 182.48489 167.72016 182.36914 162.61819 182.36914 157.16797 C 182.36914 151.71774 182.48489 146.50005 182.7168 141.51367 C 182.94871 135.13575 184.33945 129.10401 186.89062 123.42188 C 189.44179 117.62376 192.97943 112.57967 197.50195 108.28906 C 202.14044 103.99846 207.7632 100.63638 214.37305 98.201172 C 220.98289 95.650003 228.46322 94.375 236.8125 94.375 z "
       transform="matrix(0.26458333,0,0,0.26458333,-31.296832,24.860457)"
       id="path15623" />
    <g
       aria-label="CC"
       style="font-style:normal;font-variant:normal;font-weight:bold;font-stretch:normal;font-size:46.02251434px;line-height:100%;font-family:Rubik;-inkscape-font-specification:'Rubik Bold';letter-spacing:0px;word-spacing:0px;fill:#ffffff;fill-opacity:1;stroke:none;stroke-width:1.31492901px;stroke-linecap:butt;stroke-linejoin:miter;stroke-opacity:1"
       id="text15627" />
    <g
       aria-label="CASA
CALAGUALA"
       style="font-style:normal;font-variant:normal;font-weight:bold;font-stretch:normal;font-size:13.03206921px;line-height:100%;font-family:Rubik;-inkscape-font-specification:'Rubik Bold';letter-spacing:0px;word-spacing:0px;fill:#000000;fill-opacity:1;stroke:none;stroke-width:0.37234485px;stroke-linecap:butt;stroke-linejoin:miter;stroke-opacity:1"
       id="text15633">
      <path
         d="m -28.859835,119.42838 q -0.01303,0.16942 -0.02606,0.46915 0,0.29974 0,0.62554 0,0.31277 0,0.62554 0.01303,0.29974 0.02606,0.46916 0.02606,0.29973 0.117289,0.57341 0.09122,0.27367 0.286705,0.48218 0.195481,0.20852 0.495219,0.33884 0.299737,0.11729 0.742828,0.11729 0.44309,0 0.729796,-0.10426 0.286705,-0.10426 0.469154,-0.24761 0.182449,-0.15638 0.273673,-0.33883 0.104257,-0.18245 0.156385,-0.33884 0.06516,-0.20851 0.143353,-0.2867 0.07819,-0.0912 0.299738,-0.0912 h 1.707201 q 0.117288,0 0.195481,0.0912 0.09122,0.0782 0.09122,0.19548 -0.01303,0.66463 -0.325802,1.25108 -0.312769,0.58644 -0.860116,1.0165 -0.547347,0.43006 -1.290175,0.6907 -0.729796,0.24761 -1.589912,0.24761 -0.938309,0 -1.681137,-0.27368 -0.729796,-0.2867 -1.251079,-0.76889 -0.521283,-0.48218 -0.807988,-1.12076 -0.273674,-0.6516 -0.31277,-1.36836 -0.02606,-0.53432 -0.02606,-1.14682 0,-0.61251 0.02606,-1.17289 0.02606,-0.71677 0.31277,-1.35534 0.286705,-0.6516 0.794956,-1.13379 0.521283,-0.48218 1.264111,-0.75586 0.742828,-0.2867 1.681137,-0.2867 0.860116,0 1.589912,0.26064 0.742828,0.24761 1.290175,0.67767 0.547347,0.43006 0.860116,1.0165 0.31277,0.58644 0.325802,1.25108 0,0.11729 -0.09122,0.20851 -0.07819,0.0782 -0.195481,0.0782 h -1.707201 q -0.221546,0 -0.299738,-0.0782 -0.07819,-0.0912 -0.143353,-0.29974 -0.05213,-0.15638 -0.156385,-0.33883 -0.09122,-0.18245 -0.273673,-0.3258 -0.182449,-0.15639 -0.469154,-0.26064 -0.286706,-0.10426 -0.729796,-0.10426 -0.443091,0 -0.742828,0.13032 -0.299738,0.11729 -0.495219,0.3258 -0.195481,0.20851 -0.286705,0.48219 -0.09122,0.27367 -0.117289,0.57341 z"
         style="font-style:normal;font-variant:normal;font-weight:bold;font-stretch:normal;font-family:Rubik;-inkscape-font-specification:'Rubik Bold';stroke-width:0.37234485px"
         id="path16223" />
      <path
         d="m -17.151132,115.96185 q 0.260641,0 0.390962,0.14335 0.143353,0.14335 0.195481,0.28671 l 2.840991,8.2102 q 0.05213,0.13032 0.05213,0.19548 0,0.11729 -0.09122,0.20851 -0.07819,0.0782 -0.195481,0.0782 h -1.642041 q -0.260641,0 -0.37793,-0.10426 -0.104256,-0.11729 -0.13032,-0.22154 l -0.364898,-1.08167 h -3.466531 l -0.364898,1.08167 q -0.02606,0.10425 -0.143353,0.22154 -0.104256,0.10426 -0.364897,0.10426 h -1.642041 q -0.117289,0 -0.208513,-0.0782 -0.07819,-0.0912 -0.07819,-0.20851 0,-0.0652 0.05213,-0.19548 l 2.840991,-8.2102 q 0.05213,-0.14336 0.182449,-0.28671 0.143352,-0.14335 0.403994,-0.14335 z m -2.111195,5.69501 h 2.111195 l -1.055598,-3.12769 z"
         style="font-style:normal;font-variant:normal;font-weight:bold;font-stretch:normal;font-family:Rubik;-inkscape-font-specification:'Rubik Bold';stroke-width:0.37234485px"
         id="path16225" />
      <path
         d="m -9.3960324,115.83153 q 0.8340524,0 1.5247521,0.24761 0.7037318,0.23457 1.2119825,0.6125 0.5082507,0.37793 0.7949562,0.83406 0.2867055,0.45612 0.2997376,0.87315 0,0.11728 -0.091225,0.20851 -0.078192,0.0782 -0.182449,0.0782 h -1.7072011 q -0.1824489,0 -0.2997375,-0.0521 -0.1042566,-0.0521 -0.2215452,-0.15638 -0.039096,-0.0391 -0.1303207,-0.13032 -0.078192,-0.0912 -0.2345773,-0.18245 -0.1563848,-0.10426 -0.390962,-0.16942 -0.2345773,-0.0782 -0.5734111,-0.0782 -0.2476093,0 -0.4821865,0.0391 -0.2215451,0.0261 -0.4039941,0.10425 -0.169417,0.0652 -0.286706,0.19548 -0.104256,0.13032 -0.104256,0.3258 0,0.19549 0.117288,0.32581 0.130321,0.13032 0.417027,0.24761 0.2997373,0.10425 0.7819238,0.20851 0.4821866,0.10426 1.1989504,0.24761 0.7167638,0.14335 1.2510786,0.3649 0.5343149,0.22154 0.8861807,0.56038 0.364898,0.3258 0.5343149,0.78192 0.1824489,0.44309 0.1824489,1.0556 0,0.66463 -0.2997375,1.18592 -0.2997376,0.52128 -0.8470845,0.89921 -0.5343149,0.3649 -1.2771428,0.56038 -0.7297959,0.19548 -1.6029445,0.19548 -0.886181,0 -1.615977,-0.23458 -0.729795,-0.23458 -1.26411,-0.61251 -0.521283,-0.39096 -0.821021,-0.87315 -0.299737,-0.48218 -0.312769,-0.9774 0,-0.11729 0.07819,-0.19548 0.09123,-0.0912 0.195481,-0.0912 h 1.707201 q 0.182449,0 0.286706,0.0521 0.104256,0.0391 0.208513,0.13032 0.05213,0.0521 0.156385,0.16942 0.104256,0.11729 0.273673,0.24761 0.182449,0.11729 0.4430904,0.20851 0.2736735,0.0912 0.6646356,0.0912 0.6906996,0 1.1468221,-0.14336 0.4691544,-0.15638 0.4691544,-0.54734 0,-0.19548 -0.1694169,-0.3258 -0.1694169,-0.13033 -0.5082507,-0.23458 -0.3388338,-0.11729 -0.8731486,-0.22155 -0.5212828,-0.10425 -1.2380463,-0.26064 -1.342303,-0.2867 -1.967843,-0.95134 -0.612507,-0.67767 -0.612507,-1.79843 0,-0.56037 0.247609,-1.06862 0.260642,-0.50826 0.742828,-0.89922 0.482187,-0.39096 1.159854,-0.6125 0.6907,-0.23458 1.5377846,-0.23458 z"
         style="font-style:normal;font-variant:normal;font-weight:bold;font-stretch:normal;font-family:Rubik;-inkscape-font-specification:'Rubik Bold';stroke-width:0.37234485px"
         id="path16227" />
      <path
         d="m 0.66615162,115.96185 q 0.26064138,0 0.39096208,0.14335 0.1433528,0.14335 0.195481,0.28671 l 2.8409911,8.2102 q 0.052128,0.13032 0.052128,0.19548 0,0.11729 -0.091225,0.20851 -0.078192,0.0782 -0.195481,0.0782 H 2.2169679 q -0.2606414,0 -0.3779301,-0.10426 -0.1042565,-0.11729 -0.1303206,-0.22154 l -0.364898,-1.08167 h -3.4665304 l -0.3648979,1.08167 q -0.026064,0.10425 -0.1433528,0.22154 -0.1042565,0.10426 -0.3648979,0.10426 h -1.6420407 q -0.1172887,0 -0.2085132,-0.0782 -0.078192,-0.0912 -0.078192,-0.20851 0,-0.0652 0.052128,-0.19548 l 2.8409911,-8.2102 q 0.052128,-0.14336 0.182449,-0.28671 0.1433527,-0.14335 0.4039941,-0.14335 z m -2.11119522,5.69501 h 2.11119522 l -1.05559761,-3.12769 z"
         style="font-style:normal;font-variant:normal;font-weight:bold;font-stretch:normal;font-family:Rubik;-inkscape-font-specification:'Rubik Bold';stroke-width:0.37234485px"
         id="path16229" />
      <path
         d="m -28.859835,132.46045 q -0.01303,0.16942 -0.02606,0.46915 0,0.29974 0,0.62554 0,0.31277 0,0.62554 0.01303,0.29974 0.02606,0.46916 0.02606,0.29973 0.117289,0.57341 0.09122,0.27367 0.286705,0.48218 0.195481,0.20852 0.495219,0.33884 0.299737,0.11729 0.742828,0.11729 0.44309,0 0.729796,-0.10426 0.286705,-0.10426 0.469154,-0.24761 0.182449,-0.15638 0.273673,-0.33883 0.104257,-0.18245 0.156385,-0.33884 0.06516,-0.20851 0.143353,-0.2867 0.07819,-0.0912 0.299738,-0.0912 h 1.707201 q 0.117288,0 0.195481,0.0912 0.09122,0.0782 0.09122,0.19548 -0.01303,0.66463 -0.325802,1.25108 -0.312769,0.58644 -0.860116,1.0165 -0.547347,0.43006 -1.290175,0.6907 -0.729796,0.24761 -1.589912,0.24761 -0.938309,0 -1.681137,-0.27368 -0.729796,-0.2867 -1.251079,-0.76889 -0.521283,-0.48219 -0.807988,-1.12076 -0.273674,-0.6516 -0.31277,-1.36836 -0.02606,-0.53432 -0.02606,-1.14683 0,-0.6125 0.02606,-1.17288 0.02606,-0.71677 0.31277,-1.35534 0.286705,-0.6516 0.794956,-1.13379 0.521283,-0.48218 1.264111,-0.75586 0.742828,-0.2867 1.681137,-0.2867 0.860116,0 1.589912,0.26064 0.742828,0.24761 1.290175,0.67767 0.547347,0.43005 0.860116,1.0165 0.31277,0.58644 0.325802,1.25108 0,0.11728 -0.09122,0.20851 -0.07819,0.0782 -0.195481,0.0782 h -1.707201 q -0.221546,0 -0.299738,-0.0782 -0.07819,-0.0912 -0.143353,-0.29974 -0.05213,-0.15638 -0.156385,-0.33883 -0.09122,-0.18245 -0.273673,-0.3258 -0.182449,-0.15639 -0.469154,-0.26065 -0.286706,-0.10425 -0.729796,-0.10425 -0.443091,0 -0.742828,0.13032 -0.299738,0.11729 -0.495219,0.3258 -0.195481,0.20851 -0.286705,0.48219 -0.09122,0.27367 -0.117289,0.57341 z"
         style="font-style:normal;font-variant:normal;font-weight:bold;font-stretch:normal;font-family:Rubik;-inkscape-font-specification:'Rubik Bold';stroke-width:0.37234485px"
         id="path16231" />
      <path
         d="m -17.151132,128.99392 q 0.260641,0 0.390962,0.14335 0.143353,0.14335 0.195481,0.28671 l 2.840991,8.2102 q 0.05213,0.13032 0.05213,0.19548 0,0.11729 -0.09122,0.20851 -0.07819,0.0782 -0.195481,0.0782 h -1.642041 q -0.260641,0 -0.37793,-0.10426 -0.104256,-0.11729 -0.13032,-0.22155 l -0.364898,-1.08166 h -3.466531 l -0.364898,1.08166 q -0.02606,0.10426 -0.143353,0.22155 -0.104256,0.10426 -0.364897,0.10426 h -1.642041 q -0.117289,0 -0.208513,-0.0782 -0.07819,-0.0912 -0.07819,-0.20851 0,-0.0652 0.05213,-0.19548 l 2.840991,-8.2102 q 0.05213,-0.14336 0.182449,-0.28671 0.143352,-0.14335 0.403994,-0.14335 z m -2.111195,5.69501 h 2.111195 l -1.055598,-3.12769 z"
         style="font-style:normal;font-variant:normal;font-weight:bold;font-stretch:normal;font-family:Rubik;-inkscape-font-specification:'Rubik Bold';stroke-width:0.37234485px"
         id="path16233" />
      <path
         d="m -6.2204853,136.03124 q 0.1433528,0 0.2476093,0.10425 0.1042566,0.10426 0.1042566,0.24761 v 1.3814 q 0,0.14335 -0.1042566,0.24761 -0.1042565,0.10426 -0.2476093,0.10426 h -6.0338477 q -0.143353,0 -0.24761,-0.10426 -0.104256,-0.10426 -0.104256,-0.24761 v -8.41872 q 0,-0.14335 0.104256,-0.24761 0.104257,-0.10425 0.24761,-0.10425 h 1.707201 q 0.143352,0 0.247609,0.10425 0.104257,0.10426 0.104257,0.24761 v 6.68546 z"
         style="font-style:normal;font-variant:normal;font-weight:bold;font-stretch:normal;font-family:Rubik;-inkscape-font-specification:'Rubik Bold';stroke-width:0.37234485px"
         id="path16235" />
      <path
         d="m 0.08072529,128.99392 q 0.26064138,0 0.39096207,0.14335 0.14335277,0.14335 0.19548104,0.28671 l 2.8409911,8.2102 q 0.052128,0.13032 0.052128,0.19548 0,0.11729 -0.091224,0.20851 -0.078192,0.0782 -0.1954811,0.0782 H 1.6315415 q -0.2606414,0 -0.37793,-0.10426 -0.1042565,-0.11729 -0.1303207,-0.22155 L 0.75839289,136.7089 H -2.7081375 l -0.364898,1.08166 q -0.026064,0.10426 -0.1433527,0.22155 -0.1042566,0.10426 -0.364898,0.10426 h -1.6420407 q -0.1172886,0 -0.2085131,-0.0782 -0.078192,-0.0912 -0.078192,-0.20851 0,-0.0652 0.052128,-0.19548 l 2.8409911,-8.2102 q 0.052128,-0.14336 0.1824489,-0.28671 0.1433528,-0.14335 0.4039942,-0.14335 z m -2.11119519,5.69501 h 2.11119519 l -1.05559761,-3.12769 z"
         style="font-style:normal;font-variant:normal;font-weight:bold;font-stretch:normal;font-family:Rubik;-inkscape-font-specification:'Rubik Bold';stroke-width:0.37234485px"
         id="path16237" />
      <path
         d="m 8.1367817,130.94873 q -0.4430903,0 -0.7428279,0.13032 -0.2997376,0.11729 -0.4952186,0.3258 -0.182449,0.20851 -0.2736735,0.48219 -0.091225,0.27367 -0.1303207,0.57341 -0.026064,0.16942 -0.039096,0.46915 0,0.29974 0,0.62554 0,0.31277 0.013032,0.62554 0.013032,0.29974 0.026064,0.46916 0.026064,0.29973 0.1172886,0.57341 0.1042566,0.27367 0.2867056,0.48218 0.195481,0.20852 0.4952186,0.33884 0.3127697,0.11729 0.7428279,0.11729 0.3388338,0 0.6385714,-0.0782 0.2997376,-0.0782 0.5212828,-0.24761 0.2215452,-0.16941 0.3518659,-0.44309 0.1303207,-0.27367 0.1303207,-0.66463 H 8.6841287 q -0.1433528,0 -0.2476094,-0.10426 -0.1042565,-0.10425 -0.1042565,-0.24761 v -1.3814 q 0,-0.14335 0.1042565,-0.24761 0.1042566,-0.10425 0.2476094,-0.10425 h 3.1537603 q 0.143353,0 0.24761,0.10425 0.104256,0.10426 0.104256,0.24761 v 1.66811 q 0,0.83405 -0.312769,1.49869 -0.31277,0.66463 -0.860117,1.13379 -0.547347,0.45612 -1.2901748,0.70373 -0.7297959,0.24761 -1.5899125,0.24761 -0.9383089,0 -1.6811369,-0.27368 -0.7297959,-0.2867 -1.2510786,-0.76889 -0.5212828,-0.48219 -0.8079883,-1.12076 -0.2736735,-0.6516 -0.3127697,-1.36836 -0.026064,-0.53432 -0.026064,-1.14683 0,-0.6125 0.026064,-1.17288 0.026064,-0.71677 0.3127697,-1.35534 0.2867055,-0.6516 0.7949562,-1.13379 0.5212828,-0.48218 1.2641107,-0.75586 0.742828,-0.2867 1.6811369,-0.2867 0.9122449,0 1.6420408,0.27367 0.7297955,0.26064 1.2380465,0.67767 0.508251,0.40399 0.794956,0.89921 0.286706,0.48219 0.31277,0.92528 0.01303,0.11729 -0.07819,0.20851 -0.09122,0.0782 -0.208514,0.0782 h -1.733265 q -0.1954808,0 -0.3127695,-0.11729 -0.1042565,-0.11728 -0.2085131,-0.23457 -0.1824489,-0.23458 -0.4952186,-0.43006 -0.3127697,-0.19548 -0.9513411,-0.19548 z"
         style="font-style:normal;font-variant:normal;font-weight:bold;font-stretch:normal;font-family:Rubik;-inkscape-font-specification:'Rubik Bold';stroke-width:0.37234485px"
         id="path16239" />
      <path
         d="m 21.141974,128.99392 q 0.143352,0 0.247609,0.10425 0.104256,0.10426 0.104256,0.24761 v 5.1998 q 0,0.89921 -0.286705,1.58991 -0.286706,0.6907 -0.82102,1.15986 -0.521283,0.46915 -1.251079,0.71676 -0.729796,0.23458 -1.602945,0.23458 -0.88618,0 -1.615976,-0.23458 -0.729796,-0.24761 -1.251079,-0.71676 -0.521283,-0.46916 -0.807988,-1.15986 -0.286706,-0.6907 -0.286706,-1.58991 v -5.1998 q 0,-0.14335 0.104257,-0.24761 0.104256,-0.10425 0.247609,-0.10425 h 1.707201 q 0.143353,0 0.24761,0.10425 0.104256,0.10426 0.104256,0.24761 v 5.14767 q 0,0.78193 0.37793,1.22502 0.390962,0.44309 1.172886,0.44309 0.781925,0 1.159855,-0.44309 0.390962,-0.44309 0.390962,-1.22502 v -5.14767 q 0,-0.14335 0.104256,-0.24761 0.104257,-0.10425 0.247609,-0.10425 z"
         style="font-style:normal;font-variant:normal;font-weight:bold;font-stretch:normal;font-family:Rubik;-inkscape-font-specification:'Rubik Bold';stroke-width:0.37234485px"
         id="path16241" />
      <path
         d="m 27.799327,128.99392 q 0.260641,0 0.390962,0.14335 0.143352,0.14335 0.195481,0.28671 l 2.840991,8.2102 q 0.05213,0.13032 0.05213,0.19548 0,0.11729 -0.09122,0.20851 -0.07819,0.0782 -0.195482,0.0782 h -1.64204 q -0.260642,0 -0.37793,-0.10426 -0.104257,-0.11729 -0.130321,-0.22155 l -0.364898,-1.08166 h -3.46653 l -0.364898,1.08166 q -0.02606,0.10426 -0.143353,0.22155 -0.104257,0.10426 -0.364898,0.10426 h -1.642041 q -0.117288,0 -0.208513,-0.0782 -0.07819,-0.0912 -0.07819,-0.20851 0,-0.0652 0.05213,-0.19548 l 2.840991,-8.2102 q 0.05213,-0.14336 0.182449,-0.28671 0.143353,-0.14335 0.403994,-0.14335 z m -2.111196,5.69501 h 2.111196 l -1.055598,-3.12769 z"
         style="font-style:normal;font-variant:normal;font-weight:bold;font-stretch:normal;font-family:Rubik;-inkscape-font-specification:'Rubik Bold';stroke-width:0.37234485px"
         id="path16243" />
      <path
         d="m 38.729973,136.03124 q 0.143353,0 0.24761,0.10425 0.104256,0.10426 0.104256,0.24761 v 1.3814 q 0,0.14335 -0.104256,0.24761 -0.104257,0.10426 -0.24761,0.10426 h -6.033848 q -0.143353,0 -0.247609,-0.10426 -0.104257,-0.10426 -0.104257,-0.24761 v -8.41872 q 0,-0.14335 0.104257,-0.24761 0.104256,-0.10425 0.247609,-0.10425 h 1.707201 q 0.143353,0 0.24761,0.10425 0.104256,0.10426 0.104256,0.24761 v 6.68546 z"
         style="font-style:normal;font-variant:normal;font-weight:bold;font-stretch:normal;font-family:Rubik;-inkscape-font-specification:'Rubik Bold';stroke-width:0.37234485px"
         id="path16245" />
      <path
         d="m 45.03118,128.99392 q 0.260641,0 0.390962,0.14335 0.143353,0.14335 0.195481,0.28671 l 2.840991,8.2102 q 0.05213,0.13032 0.05213,0.19548 0,0.11729 -0.09122,0.20851 -0.07819,0.0782 -0.195481,0.0782 h -1.642041 q -0.260641,0 -0.37793,-0.10426 -0.104256,-0.11729 -0.13032,-0.22155 l -0.364898,-1.08166 h -3.466531 l -0.364898,1.08166 q -0.02606,0.10426 -0.143353,0.22155 -0.104256,0.10426 -0.364897,0.10426 h -1.642041 q -0.117289,0 -0.208513,-0.0782 -0.07819,-0.0912 -0.07819,-0.20851 0,-0.0652 0.05213,-0.19548 l 2.840991,-8.2102 q 0.05213,-0.14336 0.182449,-0.28671 0.143352,-0.14335 0.403994,-0.14335 z m -2.111195,5.69501 h 2.111195 l -1.055598,-3.12769 z"
         style="font-style:normal;font-variant:normal;font-weight:bold;font-stretch:normal;font-family:Rubik;-inkscape-font-specification:'Rubik Bold';stroke-width:0.37234485px"
         id="path16247" />
    </g>
  </g>
</svg>
