<?xml version="1.0" standalone="no"?>
<!DOCTYPE svg PUBLIC "-//W3C//DTD SVG 20010904//EN"
 "http://www.w3.org/TR/2001/REC-SVG-20010904/DTD/svg10.dtd">
<svg version="1.0" xmlns="http://www.w3.org/2000/svg"
 width="820.000000pt" height="820.000000pt" viewBox="0 0 820.000000 820.000000"
 preserveAspectRatio="xMidYMid meet">
<metadata>
Created by potrace 1.11, written by Peter Selinger 2001-2013
</metadata>
<g transform="translate(0.000000,820.000000) scale(0.100000,-0.100000)"
fill="#000000" stroke="none">
<path d="M2315 7243 c-12 -2 -242 -228 -512 -501 -271 -273 -651 -658 -846
-855 l-354 -357 -2 -48 c-1 -26 -2 -54 -2 -62 1 -8 1 -28 0 -45 -1 -70 -1 -81
1 -105 1 -14 1 -51 1 -82 0 -32 0 -66 0 -75 0 -99 0 -810 0 -818 1 -15 -1 -96
-2 -125 0 -14 -1 -38 0 -55 0 -16 0 -50 0 -75 0 -25 0 -52 0 -60 1 -8 1 -28 0
-45 0 -16 0 -43 0 -60 0 -16 0 -50 0 -75 0 -25 0 -52 0 -60 1 -8 1 -28 0 -45
0 -16 0 -43 0 -60 0 -16 0 -50 0 -75 0 -25 0 -52 0 -60 1 -8 1 -28 0 -45 -1
-70 -1 -81 1 -105 1 -21 1 -84 1 -157 -1 -58 -2 -375 -1 -411 l0 -43 889 -889
889 -890 101 1 c55 0 105 -2 111 -6 5 -3 10 -2 10 3 0 8 72 7 95 -2 6 -2 19 0
30 4 11 4 30 4 41 -1 12 -4 24 -5 27 -2 5 5 179 7 203 2 5 -1 14 0 19 1 12 2
128 2 141 -1 5 -1 14 -1 19 0 6 1 53 2 105 1 52 -1 102 -1 110 -1 172 2 313 0
320 -4 6 -3 10 -2 10 2 0 5 15 8 33 6 47 -5 139 -4 144 0 2 3 19 1 38 -3 19
-4 37 -5 40 -2 7 7 133 5 145 -3 5 -3 11 -2 14 3 4 7 48 8 82 1 5 -1 14 -1 19
0 27 5 267 1 275 -4 6 -4 10 -2 10 3 0 8 72 7 95 -2 6 -2 19 0 30 4 11 4 30 4
41 -1 12 -4 24 -5 27 -2 5 5 179 7 203 2 5 -1 14 0 19 1 12 2 128 2 141 -1 5
-1 14 0 19 1 12 2 128 2 141 -1 5 -1 14 0 19 1 21 4 136 0 145 -5 5 -3 11 -2
14 3 4 7 48 8 82 1 5 -1 14 -1 19 0 27 5 267 1 275 -4 6 -4 10 -2 10 3 0 8 72
7 95 -2 6 -2 19 0 30 4 11 4 30 4 41 -1 12 -4 25 -5 28 -1 4 3 27 5 51 3 41
-2 45 0 46 21 0 13 3 354 5 758 3 404 6 760 7 790 l2 55 748 -1 c526 0 747 3
748 10 0 15 -1 568 -2 631 0 28 0 52 1 55 2 7 2 123 0 135 -1 6 -2 13 -1 18 2
10 2 208 1 272 -1 28 -1 52 0 55 2 7 2 123 0 135 -1 6 -2 13 -1 18 2 10 2 208
1 272 -1 28 -1 52 0 55 2 7 2 123 0 135 -1 6 -2 13 -1 18 2 10 2 208 1 272 -1
28 -1 52 0 55 2 7 2 123 0 135 -1 6 -2 13 -1 18 2 10 2 208 1 272 -1 28 -1 52
0 55 2 7 2 123 0 135 -1 6 -2 13 -1 18 1 8 2 212 0 237 0 8 0 44 1 80 0 36 0
88 0 115 -1 28 -1 52 0 55 2 7 2 123 0 135 -1 6 -2 13 -1 18 2 10 2 208 1 272
-1 28 -1 52 0 55 2 7 2 123 0 135 -1 6 -2 13 -1 18 2 10 2 208 1 272 -1 28 -1
52 0 55 2 7 2 123 0 135 -1 6 -2 13 -1 18 1 9 1 219 0 259 -1 23 -6 27 -33 30
-17 2 -45 0 -62 -3 -18 -4 -37 -3 -44 1 -6 4 -29 4 -51 0 -21 -4 -39 -5 -39
-1 0 5 -76 6 -90 0 -3 -1 -9 0 -15 1 -5 1 -75 1 -155 0 -80 0 -152 -1 -160 -1
-57 2 -104 0 -111 -5 -5 -3 -9 -2 -9 3 0 4 -20 8 -45 8 -25 0 -45 -3 -45 -6 0
-3 -20 -3 -45 1 -25 4 -48 3 -51 -2 -3 -4 -10 -6 -15 -3 -5 4 -62 6 -127 5
-64 0 -130 0 -147 1 -16 0 -37 1 -45 0 -62 -2 -122 -1 -130 4 -5 3 -11 1 -14
-4 -3 -4 -23 -5 -43 -2 -21 4 -55 4 -76 0 -21 -3 -40 -2 -43 3 -3 4 -9 6 -14
3 -5 -3 -33 -5 -62 -5 -29 0 -62 0 -73 0 -39 -1 -70 1 -90 4 -11 1 -34 0 -52
-5 -18 -4 -35 -3 -38 1 -3 4 -21 4 -40 0 -19 -4 -37 -4 -40 0 -3 4 -21 4 -40
0 -20 -4 -38 -4 -41 1 -3 5 -10 6 -16 3 -13 -8 -165 -7 -178 1 -5 3 -11 1 -14
-4 -3 -4 -23 -5 -45 -1 -22 4 -45 4 -52 -1 -7 -4 -18 -5 -25 -2 -19 7 -224 9
-224 2 0 -4 -18 -3 -40 1 -22 4 -40 4 -40 0 0 -4 -15 -5 -32 -1 -33 7 -92 5
-115 -4 -7 -2 -15 0 -18 4 -3 5 -21 5 -40 1 -19 -4 -37 -4 -40 0 -3 4 -21 4
-40 0 -19 -4 -37 -4 -40 0 -3 4 -20 5 -37 1 -18 -4 -42 -6 -53 -5 -35 4 -78 5
-138 4 -32 0 -62 2 -67 5 -5 3 -11 1 -14 -3 -3 -5 -22 -6 -43 -3 -21 4 -55 4
-76 0 -20 -3 -39 -3 -42 1 -2 4 -24 4 -47 0 -24 -3 -57 -3 -75 1 -17 3 -37 3
-43 -1 -6 -4 -26 -4 -43 -1 -18 4 -53 4 -78 1 -26 -3 -55 -3 -64 0 -10 4 -38
3 -62 0 -23 -4 -43 -4 -43 -1 0 3 -20 6 -45 6 -25 0 -45 -3 -45 -6 0 -3 -20
-3 -45 1 -25 4 -48 3 -51 -2 -3 -4 -10 -6 -15 -2 -6 3 -76 5 -157 5 -81 -1
-154 -2 -162 -2 -57 2 -104 0 -111 -5 -5 -3 -9 -2 -9 3 0 4 -20 8 -45 8 -25 0
-45 -3 -45 -6 0 -3 -20 -3 -45 1 -25 4 -48 3 -51 -2 -3 -4 -9 -6 -14 -3 -12 8
-218 10 -226 3 -3 -3 -19 -3 -37 1 -18 4 -47 4 -65 0 -18 -3 -34 -3 -37 1 -3
4 -20 4 -39 0 -19 -4 -38 -4 -43 -1 -4 4 -17 5 -28 4z m670 -1907 c44 -3 91
-7 105 -10 14 -2 43 -7 65 -11 22 -4 47 -11 56 -16 9 -4 18 -6 21 -4 12 12
240 -88 339 -148 70 -43 187 -151 227 -209 9 -13 19 -25 24 -28 14 -11 80
-145 99 -202 30 -96 43 -208 27 -244 -6 -12 -21 -25 -35 -29 -13 -3 -138 -5
-277 -5 -225 1 -256 3 -269 18 -15 18 -47 76 -48 89 -2 21 -52 112 -77 138
-48 53 -143 103 -227 120 -43 9 -192 10 -245 1 -65 -10 -165 -59 -211 -103
-39 -37 -94 -133 -104 -183 -6 -28 -15 -80 -21 -125 -5 -43 -6 -511 0 -570 19
-198 97 -323 241 -385 124 -53 337 -45 463 19 98 49 133 94 202 257 18 43 27
53 52 58 17 3 140 6 273 6 220 0 245 -2 265 -18 26 -21 32 -67 18 -140 -4 -26
-11 -60 -13 -75 -9 -49 -56 -155 -96 -217 -91 -141 -217 -250 -390 -335 -73
-36 -96 -45 -139 -56 -3 0 -13 -5 -22 -10 -19 -10 -190 -48 -248 -55 -65 -7
-335 -3 -335 5 0 1 -18 4 -40 6 -22 3 -47 6 -55 8 -16 4 -92 21 -100 22 -17 3
-131 49 -160 64 -93 50 -119 66 -166 101 -113 85 -195 181 -272 321 -23 42
-69 180 -83 254 -28 140 -31 769 -4 895 3 14 8 38 10 54 3 16 15 54 26 85 11
31 21 61 23 67 1 7 8 19 15 28 7 9 11 16 8 16 -10 0 63 121 102 170 176 222
451 357 764 376 56 4 104 8 105 10 2 1 9 1 15 -1 7 -3 48 -7 92 -9z m2460 0
c67 -6 89 -9 145 -21 14 -3 34 -7 45 -9 11 -3 48 -14 83 -25 225 -73 413 -198
520 -346 20 -27 39 -52 42 -55 3 -3 20 -36 39 -75 36 -74 58 -143 68 -215 13
-99 4 -145 -33 -154 -14 -4 -139 -6 -278 -6 -238 1 -255 2 -275 21 -11 11 -21
25 -21 32 0 32 -80 175 -116 207 -82 74 -190 112 -324 115 -120 2 -260 -35
-308 -82 -7 -7 -19 -16 -26 -20 -32 -19 -87 -109 -106 -172 -29 -99 -34 -157
-33 -436 0 -237 3 -300 18 -370 10 -45 11 -48 23 -78 7 -16 12 -35 12 -43 0
-8 4 -14 9 -14 5 0 12 -8 16 -19 18 -59 164 -154 255 -168 60 -8 231 -10 250
-1 8 3 44 16 80 28 36 13 67 25 70 29 3 3 16 12 30 19 38 20 93 99 125 177 48
120 34 115 331 115 147 0 263 -4 274 -10 21 -11 39 -56 35 -91 -4 -32 -13 -88
-20 -119 -3 -14 -8 -35 -11 -47 -9 -44 -80 -181 -124 -238 -44 -57 -154 -159
-222 -204 -114 -76 -279 -149 -378 -166 -18 -3 -36 -8 -40 -10 -4 -3 -29 -7
-56 -10 -27 -4 -62 -8 -79 -10 -79 -11 -288 -5 -374 11 -20 3 -46 7 -58 9 -17
2 -66 16 -143 40 -3 1 -16 7 -30 12 -14 6 -43 19 -65 28 -47 20 -178 103 -183
116 -2 5 -8 9 -13 9 -19 0 -149 141 -195 211 -78 121 -122 240 -145 399 -13
88 -18 659 -6 755 13 104 18 132 37 197 46 153 126 287 235 393 87 84 81 80
175 137 69 42 232 110 291 122 13 2 48 9 76 15 29 6 88 13 130 17 43 4 79 7
80 8 3 2 98 -2 168 -8z"/>
</g>
</svg>
